<svg width="66" height="66" viewBox="0 0 66 66" fill="none" xmlns="http://www.w3.org/2000/svg">
<g filter="url(#filter0_d_415_45)">
<circle cx="33" cy="33" r="18" fill="#65C466"/>
</g>
<path d="M44.0625 32.111H21.9375C21.4197 32.111 21 32.509 21 32.9999C21 33.4908 21.4197 33.8888 21.9375 33.8888H44.0625C44.5803 33.8888 45 33.4908 45 32.9999C45 32.509 44.5803 32.111 44.0625 32.111Z" fill="white"/>
<path d="M44.0625 25H21.9375C21.4197 25 21 25.398 21 25.8889C21 26.3798 21.4197 26.7778 21.9375 26.7778H44.0625C44.5803 26.7778 45 26.3798 45 25.8889C45 25.398 44.5803 25 44.0625 25Z" fill="white"/>
<path d="M44.0625 39.2222H21.9375C21.4197 39.2222 21 39.6202 21 40.1111C21 40.602 21.4197 41 21.9375 41H44.0625C44.5803 41 45 40.602 45 40.1111C45 39.6202 44.5803 39.2222 44.0625 39.2222Z" fill="white"/>
<defs>
<filter id="filter0_d_415_45" x="0" y="0" width="66" height="66" filterUnits="userSpaceOnUse" color-interpolation-filters="sRGB">
<feFlood flood-opacity="0" result="BackgroundImageFix"/>
<feColorMatrix in="SourceAlpha" type="matrix" values="0 0 0 0 0 0 0 0 0 0 0 0 0 0 0 0 0 0 127 0" result="hardAlpha"/>
<feOffset/>
<feGaussianBlur stdDeviation="7.5"/>
<feColorMatrix type="matrix" values="0 0 0 0 0 0 0 0 0 0 0 0 0 0 0 0 0 0 0.15 0"/>
<feBlend mode="normal" in2="BackgroundImageFix" result="effect1_dropShadow_415_45"/>
<feBlend mode="normal" in="SourceGraphic" in2="effect1_dropShadow_415_45" result="shape"/>
</filter>
</defs>
</svg>
