<svg viewBox="0 0 22 22" fill="none" xmlns="http://www.w3.org/2000/svg">
<path d="M10.9896 0C4.9208 0 0 4.9208 0 10.9896C0 17.0576 4.9208 21.9792 10.9896 21.9792C17.0576 21.9792 21.9792 17.0576 21.9792 10.9896C21.9792 4.9208 17.0576 0 10.9896 0ZM17.856 11.0008C17.856 11.0008 17.856 13.2296 17.5736 14.304C17.4152 14.892 16.9512 15.356 16.3632 15.5144C15.288 15.7976 10.9896 15.7976 10.9896 15.7976C10.9896 15.7976 6.70159 15.7976 5.61599 15.5032C5.02799 15.3448 4.56399 14.8808 4.40559 14.2928C4.12239 13.2296 4.12241 10.9896 4.12241 10.9896C4.12241 10.9896 4.12239 8.76078 4.40559 7.68638C4.56399 7.09758 5.03919 6.62239 5.61599 6.46479C6.69039 6.18159 10.9896 6.18159 10.9896 6.18159C10.9896 6.18159 15.288 6.18158 16.3632 6.47598C16.9512 6.63358 17.4152 7.09758 17.5736 7.68638C17.868 8.76078 17.856 11.0008 17.856 11.0008Z" fill="url(#paint0_linear_213_239)"/>
<path d="M8.7998 13.684L13.6838 11.2424L8.7998 8.80005V13.684Z" fill="url(#paint1_linear_213_239)"/>
<defs>
<linearGradient id="paint0_linear_213_239" x1="10.9896" y1="0" x2="10.9896" y2="21.9792" gradientUnits="userSpaceOnUse">
<stop stop-color="white"/>
<stop offset="1" stop-color="white"/>
</linearGradient>
<linearGradient id="paint1_linear_213_239" x1="11.2422" y1="8.80005" x2="11.2422" y2="13.684" gradientUnits="userSpaceOnUse">
<stop stop-color="white"/>
<stop offset="1" stop-color="white"/>
</linearGradient>
</defs>
</svg>
