<svg viewBox="0 0 13 9" fill="none" xmlns="http://www.w3.org/2000/svg">
<path d="M8.48438 4.66595L12.7996 7.39394V1.82275L8.48438 4.66595Z" fill="#959AA6"/>
<path d="M0 1.82275V7.39394L4.31519 4.66595L0 1.82275Z" fill="#959AA6"/>
<path d="M11.9994 0.200195H0.799436C0.400237 0.200195 0.0834374 0.497795 0.0234375 0.880994L6.39943 5.08179L12.7754 0.880994C12.7154 0.497795 12.3986 0.200195 11.9994 0.200195Z" fill="#959AA6"/>
<path d="M7.75129 5.14899L6.61929 5.89459C6.55209 5.93859 6.47609 5.96019 6.39929 5.96019C6.32249 5.96019 6.24649 5.93859 6.17929 5.89459L5.04729 5.14819L0.0249023 8.32499C0.0865022 8.70499 0.401702 9.00019 0.799301 9.00019H11.9993C12.3969 9.00019 12.7121 8.70499 12.7737 8.32499L7.75129 5.14899Z" fill="#959AA6"/>
</svg>
