<svg viewBox="0 0 24 24" fill="none" xmlns="http://www.w3.org/2000/svg">
<path d="M13.8731 11.6001C13.8731 12.8265 12.8795 13.8202 11.6531 13.8202C10.4267 13.8202 9.43311 12.8265 9.43311 11.6001C9.43311 10.3737 10.4267 9.38013 11.6531 9.38013C12.8795 9.38013 13.8731 10.3737 13.8731 11.6001Z" fill="url(#paint0_linear_213_234)"/>
<path d="M16.8447 7.67114C16.7383 7.38234 16.5679 7.12077 16.3471 6.90557C16.1319 6.68477 15.8703 6.51433 15.5807 6.40713C15.3463 6.31593 14.9935 6.20797 14.3439 6.17837C13.6415 6.14637 13.4311 6.13916 11.6527 6.13916C9.87351 6.13916 9.66309 6.14557 8.96069 6.17837C8.31109 6.20797 7.9591 6.31593 7.7239 6.40713C7.4351 6.51433 7.1727 6.68477 6.9583 6.90557C6.7367 7.12077 6.56711 7.38234 6.45991 7.67114C6.36871 7.90634 6.2599 8.25914 6.2303 8.90874C6.1983 9.61034 6.19189 9.82155 6.19189 11.6C6.19189 13.3784 6.1983 13.5895 6.2303 14.2919C6.2599 14.9415 6.36871 15.2936 6.45991 15.5288C6.56711 15.8176 6.7367 16.0791 6.9583 16.2943C7.1727 16.5159 7.4343 16.6856 7.7239 16.7928C7.9591 16.884 8.31109 16.9928 8.96069 17.0224C9.66309 17.0544 9.87351 17.0607 11.6527 17.0607C13.4311 17.0607 13.6415 17.0544 14.3439 17.0224C14.9935 16.9928 15.3463 16.884 15.5807 16.7928C16.1615 16.5688 16.6207 16.1096 16.8447 15.5288C16.9359 15.2936 17.0447 14.9415 17.0743 14.2919C17.1063 13.5895 17.1135 13.3784 17.1135 11.6C17.1135 9.82155 17.1063 9.61034 17.0743 8.90874C17.0447 8.25914 16.9367 7.90634 16.8447 7.67114ZM11.6527 15.02C9.76311 15.02 8.23191 13.4888 8.23191 11.6C8.23191 9.71115 9.76311 8.17915 11.6527 8.17915C13.5415 8.17915 15.0727 9.71115 15.0727 11.6C15.0727 13.4888 13.5415 15.02 11.6527 15.02ZM15.2079 8.84395C14.7671 8.84395 14.4087 8.48555 14.4087 8.04395C14.4087 7.60315 14.7671 7.24478 15.2079 7.24478C15.6495 7.24478 16.0079 7.60315 16.0079 8.04395C16.0071 8.48555 15.6495 8.84395 15.2079 8.84395Z" fill="url(#paint1_linear_213_234)"/>
<path d="M11.6532 0C5.24762 0 0.0532227 5.1944 0.0532227 11.6C0.0532227 18.0056 5.24762 23.2 11.6532 23.2C18.0588 23.2 23.2532 18.0056 23.2532 11.6C23.2532 5.1944 18.0588 0 11.6532 0ZM18.274 14.3464C18.242 15.0552 18.1292 15.5392 17.9644 15.9632C17.618 16.8576 16.9108 17.5648 16.0164 17.9112C15.5924 18.076 15.1084 18.188 14.3996 18.2208C13.6892 18.2528 13.462 18.2608 11.6532 18.2608C9.84442 18.2608 9.61721 18.2528 8.90681 18.2208C8.19801 18.188 7.71401 18.076 7.29001 17.9112C6.84521 17.744 6.44281 17.4816 6.11001 17.1432C5.77161 16.8104 5.50922 16.4072 5.34202 15.9632C5.17722 15.5392 5.06442 15.0552 5.03242 14.3464C4.99962 13.636 4.99241 13.4088 4.99241 11.6C4.99241 9.7912 4.99962 9.56401 5.03242 8.85361C5.06442 8.14481 5.17722 7.66082 5.34202 7.23682C5.50922 6.79282 5.77161 6.38959 6.11001 6.05679C6.44281 5.71839 6.84521 5.45602 7.29001 5.28882C7.71401 5.12402 8.19801 5.012 8.90681 4.9792C9.61721 4.9472 9.84442 4.93921 11.6532 4.93921C13.462 4.93921 13.6892 4.9472 14.3996 4.9792C15.1084 5.012 15.5924 5.12402 16.0164 5.28882C16.4604 5.45602 16.8636 5.71839 17.1964 6.05679C17.5348 6.38959 17.7972 6.79282 17.9644 7.23682C18.1292 7.66082 18.242 8.14481 18.274 8.85361C18.3068 9.56401 18.314 9.7912 18.314 11.6C18.314 13.4088 18.3068 13.636 18.274 14.3464Z" fill="url(#paint2_linear_213_234)"/>
<defs>
<linearGradient id="paint0_linear_213_234" x1="11.6531" y1="9.38013" x2="11.6531" y2="13.8202" gradientUnits="userSpaceOnUse">
<stop stop-color="white"/>
<stop offset="1" stop-color="white"/>
</linearGradient>
<linearGradient id="paint1_linear_213_234" x1="11.6527" y1="6.13916" x2="11.6527" y2="17.0607" gradientUnits="userSpaceOnUse">
<stop stop-color="white"/>
<stop offset="1" stop-color="white"/>
</linearGradient>
<linearGradient id="paint2_linear_213_234" x1="11.6532" y1="0" x2="11.6532" y2="23.2" gradientUnits="userSpaceOnUse">
<stop stop-color="white"/>
<stop offset="1" stop-color="white"/>
</linearGradient>
</defs>
</svg>
