<svg viewBox="0 0 5 8" fill="none" xmlns="http://www.w3.org/2000/svg">
<path d="M4.89542 3.7805L0.609586 0.0864106C0.467701 -0.0316991 0.241607 -0.0283081 0.104577 0.0939863C-0.0291041 0.213287 -0.0291041 0.40241 0.104577 0.521692L4.13791 3.99814L0.104577 7.47458C-0.034859 7.59478 -0.034859 7.78966 0.104577 7.90986C0.244055 8.03005 0.470129 8.03005 0.609586 7.90986L4.89542 4.21578C5.03486 4.09556 5.03486 3.9007 4.89542 3.7805Z" fill="white"/>
<path d="M4.89542 3.7805L0.609586 0.0864106C0.467701 -0.0316991 0.241607 -0.0283081 0.104577 0.0939863C-0.0291041 0.213287 -0.0291041 0.40241 0.104577 0.521692L4.13791 3.99814L0.104577 7.47458C-0.034859 7.59478 -0.034859 7.78966 0.104577 7.90986C0.244055 8.03005 0.470129 8.03005 0.609586 7.90986L4.89542 4.21578C5.03486 4.09556 5.03486 3.9007 4.89542 3.7805Z" fill="white"/>
<path d="M4.89542 3.7805L0.609586 0.0864106C0.467701 -0.0316991 0.241607 -0.0283081 0.104577 0.0939863C-0.0291041 0.213287 -0.0291041 0.40241 0.104577 0.521692L4.13791 3.99814L0.104577 7.47458C-0.034859 7.59478 -0.034859 7.78966 0.104577 7.90986C0.244055 8.03005 0.470129 8.03005 0.609586 7.90986L4.89542 4.21578C5.03486 4.09556 5.03486 3.9007 4.89542 3.7805Z" fill="white"/>
<path d="M4.89542 3.7805L0.609586 0.0864106C0.467701 -0.0316991 0.241607 -0.0283081 0.104577 0.0939863C-0.0291041 0.213287 -0.0291041 0.40241 0.104577 0.521692L4.13791 3.99814L0.104577 7.47458C-0.034859 7.59478 -0.034859 7.78966 0.104577 7.90986C0.244055 8.03005 0.470129 8.03005 0.609586 7.90986L4.89542 4.21578C5.03486 4.09556 5.03486 3.9007 4.89542 3.7805Z" fill="white"/>
</svg>
