<svg width="13" height="15" viewBox="0 0 13 15" fill="none" xmlns="http://www.w3.org/2000/svg">
<path d="M11.5485 10.4435C10.7645 10.3063 10.0162 10.0489 9.32893 9.68013C8.99283 9.49564 8.53384 9.53056 8.27646 9.71643L6.64636 10.5513C5.13262 9.36764 4.28407 8.15936 3.69503 6.3482L4.99545 5.13057C5.31745 4.90484 5.48575 4.52222 5.43364 4.12644C5.31992 3.35076 5.33163 2.55981 5.46893 1.77549C5.56816 1.2089 5.1879 0.667246 4.62133 0.568062L2.26971 0.156381C1.70314 0.0571972 1.16149 0.437458 1.06231 1.00402C-0.0746053 7.49836 4.28389 13.7067 10.7782 14.8436C11.3448 14.9428 11.8864 14.5625 11.9856 13.996L12.3961 11.6509C12.4953 11.0844 12.115 10.5427 11.5485 10.4435Z" fill="white"/>
</svg>
