<svg viewBox="0 0 16 16" fill="none" xmlns="http://www.w3.org/2000/svg">
<path d="M13.3358 10.1395C12.485 9.28869 11.4722 8.65882 10.3673 8.27754C11.5507 7.46244 12.3282 6.09831 12.3282 4.55582C12.3282 2.06556 10.3022 0.0395508 7.81193 0.0395508C5.32166 0.0395508 3.29566 2.06556 3.29566 4.55582C3.29566 6.09831 4.07316 7.46244 5.25663 8.27754C4.15167 8.65882 3.13893 9.28869 2.28807 10.1395C0.812593 11.615 0 13.5768 0 15.6634H1.22061C1.22061 12.0289 4.17746 9.07209 7.81193 9.07209C11.4464 9.07209 14.4032 12.0289 14.4032 15.6634H15.6239C15.6239 13.5768 14.8113 11.615 13.3358 10.1395ZM7.81193 7.85148C5.99471 7.85148 4.51627 6.37307 4.51627 4.55582C4.51627 2.73857 5.99471 1.26016 7.81193 1.26016C9.62915 1.26016 11.1076 2.73857 11.1076 4.55582C11.1076 6.37307 9.62915 7.85148 7.81193 7.85148Z" fill="#C2C1C2"/>
</svg>
