<svg viewBox="0 0 15 16" fill="none" xmlns="http://www.w3.org/2000/svg">
<path d="M10.5275 15.6456C10.0547 15.6456 9.58586 15.5621 9.12743 15.3955C7.10784 14.6619 5.23323 13.4669 3.70619 11.9399C2.17915 10.4129 0.98424 8.53828 0.250615 6.51869C0.0148651 5.86965 -0.054707 5.19968 0.0439011 4.5273C0.136273 3.89749 0.380233 3.28607 0.749434 2.75913C1.12027 2.22988 1.61465 1.78967 2.17912 1.48613C2.78107 1.16244 3.43809 0.998291 4.13198 0.998291C4.34779 0.998291 4.5343 1.14908 4.57953 1.36008L5.29797 4.71279C5.33049 4.8646 5.28383 5.02257 5.17407 5.13237L3.94646 6.35995C5.10453 8.6624 6.98366 10.5415 9.28612 11.6996L10.5137 10.472C10.6235 10.3622 10.7815 10.3156 10.9333 10.3481L14.286 11.0665C14.497 11.1118 14.6478 11.2983 14.6478 11.5141C14.6478 12.208 14.4836 12.865 14.1599 13.467C13.8564 14.0314 13.4162 14.5258 12.8869 14.8967C12.36 15.2659 11.7486 15.5098 11.1187 15.6022C10.9214 15.6312 10.724 15.6456 10.5275 15.6456ZM3.76626 1.93374C2.85099 2.03478 2.03861 2.51452 1.49914 3.28447C0.892497 4.15026 0.751036 5.21515 1.11103 6.20616C2.52146 10.0889 5.55726 13.1247 9.43996 14.5351C10.4309 14.8951 11.4959 14.7537 12.3616 14.147C13.1316 13.6075 13.6113 12.7951 13.7124 11.8799L10.985 11.2954L9.70292 12.5775C9.56649 12.7139 9.35921 12.7501 9.18465 12.6681C6.46155 11.3888 4.25733 9.18457 2.97803 6.46147C2.89601 6.28688 2.93223 6.0796 3.06866 5.9432L4.3507 4.66115L3.76626 1.93374Z" fill="#C2C1C2"/>
<path d="M14.1901 8.77913C13.9373 8.77913 13.7324 8.57419 13.7324 8.32142C13.7324 4.78807 10.8578 1.91347 7.32441 1.91347C7.07164 1.91347 6.8667 1.70853 6.8667 1.45576C6.8667 1.20299 7.07164 0.998047 7.32441 0.998047C9.28058 0.998047 11.1196 1.75979 12.5028 3.143C13.886 4.5262 14.6478 6.36525 14.6478 8.32142C14.6478 8.57419 14.4429 8.77913 14.1901 8.77913Z" fill="#C2C1C2"/>
<path d="M12.3592 8.7791C12.1065 8.7791 11.9015 8.57416 11.9015 8.32139C11.9015 5.79757 9.84823 3.74428 7.32441 3.74428C7.07164 3.74428 6.8667 3.53934 6.8667 3.28657C6.8667 3.0338 7.07164 2.82886 7.32441 2.82886C10.353 2.82886 12.8169 5.2928 12.8169 8.32139C12.8169 8.57416 12.612 8.7791 12.3592 8.7791Z" fill="#C2C1C2"/>
<path d="M10.5284 8.77907C10.2756 8.77907 10.0707 8.57413 10.0707 8.32136C10.0707 6.80705 8.83872 5.57509 7.32441 5.57509C7.07164 5.57509 6.8667 5.37015 6.8667 5.11738C6.8667 4.86461 7.07164 4.65967 7.32441 4.65967C9.34349 4.65967 10.9861 6.30228 10.9861 8.32136C10.9861 8.57413 10.7812 8.77907 10.5284 8.77907Z" fill="#C2C1C2"/>
</svg>
