<svg width="25" height="25" viewBox="0 0 25 25" fill="none" xmlns="http://www.w3.org/2000/svg">
<path d="M12.4248 0C5.56275 0 0 5.56275 0 12.4248C0 19.2868 5.56275 24.8495 12.4248 24.8495C19.2868 24.8495 24.8495 19.2868 24.8495 12.4248C24.8495 5.56275 19.2868 0 12.4248 0ZM18.4088 13.0188C18.3882 13.0417 18.3663 13.0635 18.3434 13.0842L9.46855 21.0715C9.09789 21.3922 8.53742 21.3518 8.21673 20.9811C7.90493 20.6207 7.93337 20.0785 8.28111 19.7527L16.4229 12.4248L8.28111 5.09683C7.92339 4.76173 7.90509 4.20012 8.24018 3.84241C8.56597 3.49467 9.10823 3.46623 9.46855 3.77803L18.3434 11.7654C18.7076 12.0934 18.7368 12.6546 18.4088 13.0188Z" fill="#65C466"/>
</svg>
