<svg width="25" height="25" viewBox="0 0 25 25" fill="none" xmlns="http://www.w3.org/2000/svg">
<path d="M12.4249 24.8496C19.2869 24.8496 24.8496 19.2869 24.8496 12.4249C24.8496 5.56286 19.2869 0.000102511 12.4249 0.000101911C5.56286 0.000101311 0.000104683 5.56285 0.000104083 12.4249C0.000103483 19.2869 5.56281 24.8496 12.4249 24.8496ZM6.44079 11.8308C6.46144 11.8079 6.48328 11.7861 6.50621 11.7654L15.3811 3.77808C15.7517 3.45739 16.3122 3.49785 16.6329 3.86851C16.9447 4.22888 16.9162 4.77109 16.5685 5.09688L8.42671 12.4248L16.5685 19.7528C16.9262 20.0879 16.9445 20.6495 16.6094 21.0072C16.2836 21.3549 15.7414 21.3834 15.3811 21.0716L6.50621 13.0842C6.14205 12.7562 6.11277 12.195 6.44079 11.8308Z" fill="#65C466"/>
</svg>
