<svg width="62" height="62" viewBox="0 0 62 62" fill="none" xmlns="http://www.w3.org/2000/svg">
<circle cx="30.8702" cy="30.8702" r="30.8702" fill="white"/>
<circle cx="30.87" cy="30.8702" r="27.6629" fill="#65C466"/>
<path d="M44.0638 36.2671L41.5744 30.5583C41.4399 30.1556 41.1184 29.8399 40.7135 29.7137L34.2722 27.664L33.5825 25.9396L35.6191 23.4956C35.6852 23.4158 35.7214 23.3161 35.7214 23.2129V22.3309H36.1624C36.8918 22.3309 37.4854 21.7373 37.4854 21.0079V19.2439C37.4854 18.5145 36.8918 17.9209 36.1624 17.9209H35.7214V17.4799H36.1624C36.2845 17.4799 36.4018 17.4292 36.4847 17.3396C36.5681 17.2501 36.6109 17.1297 36.6021 17.0076L36.2784 12.4718C36.1963 11.3235 35.2305 10.4238 34.0786 10.4238H27.7833C26.5675 10.4238 25.5783 11.413 25.5783 12.6288V17.0389C25.5783 17.2823 25.7754 17.4799 26.0193 17.4799V17.9209H25.5783C24.8489 17.9209 24.2553 18.5145 24.2553 19.2439V21.0079C24.2553 21.7373 24.8489 22.3309 25.5783 22.3309H26.0193V23.2129C26.0193 23.3161 26.0555 23.4158 26.1212 23.4952L28.1502 25.9304L27.3454 27.7389L25.1227 28.4335L21.0267 29.7137C20.6219 29.8399 20.3004 30.1556 20.18 30.5217L17.6768 36.2671C17.6173 36.4033 17.631 36.5608 17.7121 36.6847C17.7942 36.809 17.9326 36.884 18.0812 36.884H43.6594C43.808 36.884 43.9465 36.809 44.0285 36.6847C44.1097 36.5603 44.1234 36.4033 44.0638 36.2671ZM35.7214 18.8029H36.1624C36.4058 18.8029 36.6034 19.0009 36.6034 19.2439V21.0079C36.6034 21.2509 36.4058 21.4489 36.1624 21.4489H35.7214V18.8029ZM26.0193 21.4489H25.5783C25.3349 21.4489 25.1373 21.2509 25.1373 21.0079V19.2439C25.1373 19.0009 25.3349 18.8029 25.5783 18.8029H26.0193V21.4489ZM34.0848 28.5663L35.6623 29.0593L32.816 31.4081L31.6536 29.9554L34.0848 28.5663ZM32.0434 32.0004L30.8703 33.1734L29.6973 32.0004L30.8703 30.534L32.0434 32.0004ZM28.2689 27.8338L28.8955 26.4261L30.7063 27.1506C30.7592 27.1714 30.8148 27.1819 30.8703 27.1819C30.9259 27.1819 30.9815 27.1714 31.0339 27.1506L32.8297 26.4322L33.4052 27.8717L30.8703 29.3199L28.2689 27.8338ZM26.4603 12.6288C26.4603 11.8994 27.0539 11.3058 27.7833 11.3058H34.0786C34.7692 11.3058 35.3492 11.8456 35.3986 12.5345L35.6887 16.5979H34.8394H32.6344C30.5859 16.5979 29.5473 15.8561 29.5473 14.3929C29.5473 14.1494 29.3502 13.9519 29.1063 13.9519C28.8624 13.9519 28.6653 14.1494 28.6653 14.3929C28.6653 15.6087 27.6762 16.5979 26.4603 16.5979V12.6288ZM26.9013 23.0533V17.4464C27.8274 17.3132 28.623 16.7685 29.0935 16.003C29.6955 16.9573 30.9153 17.4799 32.6344 17.4799H34.8394V23.0533L32.8081 25.4907L30.8703 26.266L28.9326 25.4911L26.9013 23.0533ZM27.6709 28.561L30.1991 29.9607L29.0415 31.4076L26.1631 29.0324L27.6709 28.561ZM28.7623 36.002H18.7542L21.0033 30.8365C21.0479 30.7025 21.155 30.5975 21.2895 30.5552L25.1576 29.3464L28.8104 32.3611L29.4997 33.0504L28.7623 36.002ZM29.6712 36.002L30.2269 33.7776L30.5581 34.1088C30.6445 34.1948 30.7574 34.238 30.8703 34.238C30.9832 34.238 31.0961 34.1948 31.1821 34.1088L31.5133 33.7776L32.0694 36.002H29.6712ZM32.9783 36.002L32.2405 33.0504L32.8306 32.4603C32.9038 32.4466 32.9739 32.4215 33.0321 32.3734L36.6678 29.3733L36.8583 29.4328L35.3029 34.0986C35.2557 34.2406 35.283 34.3968 35.3765 34.5136L36.5672 36.002H32.9783ZM36.2157 34.1498L37.7002 29.6957L38.4102 29.9175L38.793 34.5119L37.522 35.7828L36.2157 34.1498ZM38.55 36.002L39.5612 34.9908C39.6529 34.8991 39.6992 34.7716 39.6886 34.6424L39.3186 30.2015L40.4511 30.5552C40.5861 30.5971 40.6932 30.702 40.7519 30.8731L42.9865 36.002H38.55Z" fill="white"/>
</svg>
